HIERARCHY
ROOT Pelvis
{
	OFFSET 0.000000 0.000000 0.000000
	CHANNELS 6 Xposition Yposition Zposition Zrotation Yrotation Xrotation 
	JOINT Left_hip
	{
		OFFSET 0.070241 -0.085575 -0.010474
		CHANNELS 3 Zrotation Yrotation Xrotation
		JOINT Left_knee
		{
			OFFSET 0.032125 -0.356873 -0.000555
			CHANNELS 3 Zrotation Yrotation Xrotation
			JOINT Left_ankle
			{
				OFFSET -0.010961 -0.370212 -0.042278
				CHANNELS 3 Zrotation Yrotation Xrotation
				JOINT Left_foot
				{
					OFFSET 0.023322 -0.052281 0.110104
					CHANNELS 3 Zrotation Yrotation Xrotation
					End Site
					{
						OFFSET 0.000000 0.000000 0.000000
					}
				}
			}
		}
	}
	JOINT Right_hip
	{
		OFFSET -0.068518 -0.084320 -0.007402
		CHANNELS 3 Zrotation Yrotation Xrotation
		JOINT Right_knee
		{
			OFFSET -0.037345 -0.364815 -0.003619
			CHANNELS 3 Zrotation Yrotation Xrotation
			JOINT Right_ankle
			{
				OFFSET 0.013394 -0.370006 -0.039954
				CHANNELS 3 Zrotation Yrotation Xrotation
				JOINT Right_foot
				{
					OFFSET -0.019600 -0.045455 0.113223
					CHANNELS 3 Zrotation Yrotation Xrotation
					End Site
					{
						OFFSET 0.000000 0.000000 0.000000
					}
				}
			}
		}
	}
	JOINT Spine1
	{
		OFFSET -0.002404 0.098129 -0.018169
		CHANNELS 3 Zrotation Yrotation Xrotation
		JOINT Spine2
		{
			OFFSET 0.003989 0.127209 -0.001742
			CHANNELS 3 Zrotation Yrotation Xrotation
			JOINT Spine3
			{
				OFFSET 0.001758 0.046641 0.023475
				CHANNELS 3 Zrotation Yrotation Xrotation
				JOINT Neck
				{
					OFFSET -0.003759 0.194901 -0.039982
					CHANNELS 3 Zrotation Yrotation Xrotation
					JOINT Head
					{
						OFFSET 0.003999 0.063756 0.047665
						CHANNELS 3 Zrotation Yrotation Xrotation
						End Site
						{
							OFFSET 0.000000 0.000000 0.000000
						}
					}
				}
				JOINT Left_collar
				{
					OFFSET 0.071816 0.109048 -0.028973
					CHANNELS 3 Zrotation Yrotation Xrotation
					JOINT Left_shoulder
					{
						OFFSET 0.084027 0.032269 -0.006525
						CHANNELS 3 Zrotation Yrotation Xrotation
						JOINT Left_elbow
						{
							OFFSET 0.243854 -0.013992 -0.025905
							CHANNELS 3 Zrotation Yrotation Xrotation
							JOINT Left_wrist
							{
								OFFSET 0.232156 0.008196 -0.000339
								CHANNELS 3 Zrotation Yrotation Xrotation
								JOINT Left_palm
								{
									OFFSET 0.075377 -0.009461 -0.012494
									CHANNELS 3 Zrotation Yrotation Xrotation
									End Site
									{
										OFFSET 0.000000 0.000000 0.000000
									}
								}
							}
						}
					}
				}
				JOINT Right_collar
				{
					OFFSET -0.073768 0.107001 -0.033755
					CHANNELS 3 Zrotation Yrotation Xrotation
					JOINT Right_shoulder
					{
						OFFSET -0.086837 0.032868 -0.009431
						CHANNELS 3 Zrotation Yrotation Xrotation
						JOINT Right_elbow
						{
							OFFSET -0.236446 -0.012544 -0.018747
							CHANNELS 3 Zrotation Yrotation Xrotation
							JOINT Right_wrist
							{
								OFFSET -0.236110 0.006124 -0.004327
								CHANNELS 3 Zrotation Yrotation Xrotation
								JOINT Right_palm
								{
									OFFSET -0.074800 -0.006875 -0.009610
									CHANNELS 3 Zrotation Yrotation Xrotation
									End Site
									{
										OFFSET 0.000000 0.000000 0.000000
									}
								}
							}
						}
					}
				}
			}
		}
	}
}
MOTION
Frames: 11
Frame Time: 0.100000
-0.395506 0.498509 0.106560 170.242569 30.082488 38.794086 21.093746 4.539318 -99.867162 -9.709010 18.480348 144.853212 -0.247990 1.230713 -8.688632 10.765499 15.542331 -31.020898 -10.355585 2.847565 -96.117124 10.012846 -15.929804 143.449719 10.180626 12.094386 -13.237561 -37.766667 -8.673239 -29.373322 3.388297 -1.944543 67.080963 -0.509791 -1.919675 -11.078356 7.387219 6.166417 -10.643774 -14.614273 -5.983030 -30.056735 20.548086 -3.210355 -32.675234 23.632816 -57.311298 -32.442973 16.499960 -36.357763 -28.637705 152.403306 -40.291992 -108.602302 77.498542 -23.705073 -12.379888 -5.224108 -3.377946 7.636556 -21.978935 60.885158 -23.054873 -13.786158 29.777690 -35.603409 -161.040103 42.146551 -126.645561 -80.595284 28.271254 -15.793728 11.322304 0.276715 7.737450 
-0.401975 0.494576 0.110520 170.762199 28.888824 40.846750 20.616558 5.139314 -100.472046 -9.052583 18.900516 144.477202 0.386627 1.320561 -10.454582 8.860195 14.998611 -30.998407 -9.857399 2.969208 -96.870416 9.046654 -15.892139 143.145128 9.330940 10.017393 -17.191054 -37.620291 -7.381709 -27.813206 3.120214 -1.974870 65.764926 -0.766853 -1.699247 -13.277990 7.330263 5.835307 -9.603144 -14.597065 -5.777421 -31.270026 19.778315 -4.258074 -32.513581 25.596041 -53.877717 -33.213627 11.762512 -37.386764 -25.706562 153.044453 -41.405031 -108.780001 78.436754 -22.161748 -12.358827 -4.587025 -2.990345 6.823108 -23.586811 58.969507 -23.513668 -8.562339 32.068322 -31.851535 -160.365856 45.285104 -125.914955 -83.765241 24.365894 -19.580498 10.908869 0.141669 8.299362 
-0.399505 0.503693 0.105845 172.064150 27.591534 43.400709 19.919633 6.287879 -103.542887 -7.659095 20.461061 146.332068 2.714358 2.275260 -18.118105 5.884016 14.475709 -28.371776 -9.775903 2.100516 -100.693641 6.103534 -16.640365 146.065401 7.270313 6.652787 -23.570693 -35.842498 -5.745691 -24.729030 2.461248 -1.836627 63.002438 -1.238692 -1.991604 -16.045004 6.917336 5.378269 -8.586713 -13.796448 -7.121332 -32.482619 20.005960 -5.015460 -31.500025 25.495776 -53.145410 -32.377839 7.449422 -37.447053 -22.955942 150.065195 -43.709490 -106.882721 76.196128 -20.017961 -11.507937 -3.569898 -2.623756 5.950235 -23.945773 58.158142 -23.634206 -5.061387 32.787956 -30.817702 -160.598846 46.560960 -125.971752 -83.482776 21.747305 -20.279263 10.572206 -0.046339 9.052627 
-0.401065 0.508142 0.099299 172.462477 27.190035 41.709281 18.295202 5.139007 -102.957128 -6.369457 21.349687 147.705481 1.885904 6.136612 -20.380104 9.732240 13.399003 -26.979521 -8.667055 1.695277 -99.437070 3.316222 -16.658696 147.884715 6.967502 1.159841 -25.508808 -36.997567 -4.691146 -25.167183 2.413160 -2.005312 66.180732 -1.156031 -2.017130 -17.150727 7.194577 5.307033 -7.048755 -13.891888 -8.156632 -32.040404 20.019229 -4.534304 -34.207126 27.878916 -50.102207 -33.070594 10.114910 -39.069093 -26.483630 147.849722 -44.665578 -105.245013 76.167079 -18.778126 -11.626711 -3.921448 -2.433436 6.040887 -27.294496 55.955523 -26.584398 -7.141420 33.714835 -32.704627 -159.730425 45.983715 -125.462192 -83.728271 19.883336 -21.254944 10.419165 0.076679 9.835963 
-0.397654 0.520799 0.088003 172.184454 26.439158 40.231079 17.836807 5.717663 -104.047420 -5.298401 22.025663 150.255170 0.118638 7.744889 -20.605832 14.062963 12.949749 -26.507013 -8.266618 1.693174 -100.643712 1.225604 -16.610137 150.793718 6.335377 -2.301338 -26.606386 -37.424067 -4.957400 -26.573558 1.678752 -2.006220 68.853326 -1.436852 -1.746099 -18.310815 7.038375 5.215135 -6.651393 -12.056838 -7.508372 -33.657035 20.896537 -3.996347 -36.885245 28.537904 -45.549085 -33.001227 12.994016 -41.990830 -29.253158 146.298332 -44.666764 -103.263889 77.395426 -17.834102 -11.743838 -3.233456 -1.951762 7.093025 -28.544474 52.698231 -27.911041 -9.739017 36.717423 -34.207894 -157.773346 45.925437 -123.807007 -85.083614 16.946619 -23.583214 9.009785 0.170946 11.996270 
-0.391351 0.537739 0.077515 172.204655 25.753114 38.923178 17.893017 6.596007 -105.446432 -4.996413 22.607209 153.235660 -2.083257 7.188368 -20.062072 18.650472 13.160210 -26.882072 -8.355412 1.610338 -102.301980 -0.204304 -16.253879 154.286316 5.998460 -3.743211 -25.335982 -38.205072 -6.248111 -29.354304 0.481353 -1.807115 71.597063 -1.671958 -1.779220 -19.576456 6.807130 4.870780 -7.650673 -9.870135 -6.111727 -37.681217 22.198777 -2.679561 -38.609914 26.333563 -42.380684 -32.629246 16.781613 -45.716412 -32.522234 139.987833 -45.270870 -97.581981 75.897673 -18.466505 -10.700931 -2.417436 -2.061948 8.703278 -25.916258 50.341417 -27.597499 -12.321513 41.043253 -35.335621 -152.888276 48.817586 -118.375045 -84.392696 17.080369 -22.779251 7.190870 1.128022 14.137436 
-0.387586 0.554582 0.070918 172.393674 26.145347 37.039545 18.017861 6.475764 -106.904155 -5.295615 23.102231 155.522006 -2.725119 5.589676 -18.383657 19.219109 13.635733 -27.074529 -9.737142 -0.971934 -100.156748 -0.632205 -16.639235 156.848450 4.900757 -1.836022 -27.310729 -37.620906 -7.421608 -30.205002 0.895680 -2.108969 72.229013 -1.777573 -2.556814 -18.821621 6.537644 4.524984 -8.659756 -10.209682 -6.822945 -37.801404 21.837455 -2.699797 -40.569799 25.624923 -43.871150 -32.600207 19.262850 -44.842203 -33.121064 139.740824 -45.691809 -97.777104 76.816350 -19.711088 -12.730425 -2.290189 -1.805490 9.356335 -26.655866 50.762068 -28.577991 -12.766066 39.660882 -34.535888 -153.168951 47.810065 -120.022805 -84.152126 17.797084 -24.698951 6.861161 1.078607 13.949398 
-0.381140 0.556814 0.069216 173.058078 26.391005 36.862485 18.090989 6.403773 -106.694347 -5.682653 23.203180 155.624992 -2.561138 5.425695 -19.125382 19.195242 13.366137 -26.594144 -9.732985 -1.122266 -100.338975 -0.765655 -16.839707 157.414104 4.553843 -1.873919 -27.124953 -37.068258 -7.207235 -30.340247 0.558535 -2.134752 72.237325 -1.728256 -2.882212 -18.351429 6.442269 4.212449 -8.646104 -10.835580 -8.062472 -38.009787 21.484285 -3.403073 -40.488103 25.406170 -44.937549 -32.353692 21.127147 -43.367433 -33.764372 139.634045 -46.103475 -98.212181 77.199574 -20.010767 -12.633220 -1.874594 -1.710538 9.570302 -26.127428 51.780537 -28.559990 -14.124669 38.932085 -35.218312 -153.522696 47.880408 -120.772556 -84.126465 18.163353 -24.478345 6.520788 0.749227 14.285960 
-0.378174 0.555081 0.074308 173.415272 26.622728 37.287795 18.349104 6.688654 -106.320382 -6.018157 23.029444 155.145846 -2.656459 4.994465 -18.860030 19.203277 13.726696 -26.368586 -9.648537 -0.820359 -100.413425 -0.883997 -16.968853 156.804740 3.969165 -1.669269 -26.996019 -36.320594 -7.386113 -29.672770 0.349484 -2.142743 71.847433 -1.715403 -2.886632 -18.027957 6.343128 4.118833 -8.886917 -10.863801 -7.207851 -37.201796 21.294516 -3.095496 -40.066221 24.433322 -44.965806 -32.029385 20.706689 -43.897170 -33.132824 139.619019 -46.268698 -98.265543 76.969239 -19.981568 -12.699304 -1.986383 -1.554500 9.678098 -25.321017 51.681587 -28.243029 -13.410038 39.731590 -34.456062 -153.617310 48.038980 -121.003226 -83.876183 17.883005 -24.790251 6.642867 0.644614 14.593654 
-0.372627 0.547649 0.077262 173.902382 26.278577 38.841375 18.300642 7.496486 -106.077552 -6.326792 22.727641 154.058195 -2.914949 5.430083 -19.337721 19.383621 13.524944 -27.267302 -7.971664 1.694790 -103.878050 -1.298988 -16.413896 156.259906 5.060224 -4.333332 -24.704137 -37.759217 -6.869935 -29.763066 -0.852155 -1.862330 72.091670 -2.056630 -2.475623 -19.745200 6.470766 4.065250 -7.926506 -9.401439 -5.590068 -38.774252 22.921418 -2.213527 -38.559699 25.848643 -42.461554 -32.421820 19.364197 -45.102006 -33.567632 138.860055 -45.379816 -97.367316 75.966211 -18.439201 -11.468089 -1.874691 -1.676613 9.589281 -26.084364 49.698460 -27.829801 -12.701175 41.651623 -35.217294 -153.076757 48.607671 -118.801292 -84.750417 16.058860 -24.372199 6.369137 0.858813 15.844221 
-0.371458 0.546846 0.079396 174.401880 25.897271 39.181353 18.403417 7.713545 -105.575923 -6.249821 22.799170 153.778430 -2.666899 4.877598 -19.384489 18.521937 13.819005 -27.556422 -8.052277 1.799568 -104.052291 -1.258839 -16.214315 156.267847 5.462679 -4.161173 -24.645797 -38.356304 -7.420428 -29.862190 -1.210260 -2.015782 72.235050 -2.385955 -2.586695 -20.301123 6.311060 3.926299 -7.479892 -9.181483 -4.540678 -38.487937 23.410115 -1.593878 -39.762768 27.165983 -41.099765 -33.066715 17.348639 -45.502509 -33.133263 138.623287 -44.152858 -96.506725 75.391141 -18.144958 -11.590326 -1.468282 -1.324972 9.645228 -27.756264 48.260936 -28.381545 -10.998336 42.679120 -34.930353 -151.955036 48.973147 -116.529260 -84.752461 15.762094 -24.405914 5.918110 0.752325 16.093346 
